# Blender v2.80 (sub 75) OBJ File: 'room4.blend'
# www.blender.org
mtllib room4.mtl
o Cube
v 0.500000 1.000000 -0.010000
v 0.500000 -1.000000 -0.010000
v 0.500000 1.000000 0.010000
v 0.500000 -1.000000 0.010000
v -0.500000 1.000000 -0.010000
v -0.500000 -1.000000 -0.010000
v -0.500000 1.000000 0.010000
v -0.500000 -1.000000 0.010000
vt 0.375000 0.000000
vt 0.625000 0.000000
vt 0.625000 0.250000
vt 0.375000 0.250000
vt 0.375000 0.250000
vt 0.625000 0.250000
vt 0.625000 0.500000
vt 0.375000 0.500000
vt 0.625000 0.750000
vt 0.375000 0.750000
vt 0.625000 0.750000
vt 0.625000 1.000000
vt 0.375000 1.000000
vt 0.125000 0.500000
vt 0.375000 0.500000
vt 0.375000 0.750000
vt 0.125000 0.750000
vt 0.625000 0.500000
vt 0.875000 0.500000
vt 0.875000 0.750000
vn 0.0000 1.0000 0.0000
vn 0.0000 0.0000 1.0000
vn -1.0000 0.0000 0.0000
vn 0.0000 -1.0000 0.0000
vn 1.0000 0.0000 0.0000
vn 0.0000 0.0000 -1.0000
usemtl Red
s off
f 1/1/1 5/2/1 7/3/1 3/4/1
f 4/5/2 3/6/2 7/7/2 8/8/2
f 8/8/3 7/7/3 5/9/3 6/10/3
f 6/10/4 2/11/4 4/12/4 8/13/4
f 2/14/5 1/15/5 3/16/5 4/17/5
f 6/18/6 5/19/6 1/20/6 2/11/6
o Text
v 0.442000 0.024000 0.040000
v 0.442000 -0.152000 0.040000
v 0.296000 -0.152000 0.040000
v 0.296000 -0.600000 0.040000
v 0.100000 -0.600000 0.040000
v 0.100000 -0.152000 0.040000
v -0.478000 -0.152000 0.040000
v -0.478000 -0.062000 0.040000
v 0.212000 0.782000 0.040000
v 0.296000 0.782000 0.040000
v 0.296000 0.024000 0.040000
v 0.100000 0.024000 0.040000
v 0.100000 0.412000 0.040000
v 0.096000 0.412000 0.040000
v -0.216000 0.024000 0.040000
v 0.442000 0.024000 -0.040000
v 0.442000 -0.152000 -0.040000
v 0.296000 -0.152000 -0.040000
v 0.296000 -0.600000 -0.040000
v 0.100000 -0.600000 -0.040000
v 0.100000 -0.152000 -0.040000
v -0.478000 -0.152000 -0.040000
v -0.478000 -0.062000 -0.040000
v 0.212000 0.782000 -0.040000
v 0.296000 0.782000 -0.040000
v 0.296000 0.024000 -0.040000
v 0.100000 0.024000 -0.040000
v 0.100000 0.412000 -0.040000
v 0.096000 0.412000 -0.040000
v -0.216000 0.024000 -0.040000
v 0.442000 0.024000 -0.040000
v 0.442000 0.024000 0.040000
v 0.442000 -0.152000 -0.040000
v 0.442000 -0.152000 0.040000
v 0.296000 -0.152000 -0.040000
v 0.296000 -0.152000 0.040000
v 0.296000 -0.600000 -0.040000
v 0.296000 -0.600000 0.040000
v 0.100000 -0.600000 -0.040000
v 0.100000 -0.600000 0.040000
v 0.100000 -0.152000 -0.040000
v 0.100000 -0.152000 0.040000
v -0.478000 -0.152000 -0.040000
v -0.478000 -0.152000 0.040000
v -0.478000 -0.062000 -0.040000
v -0.478000 -0.062000 0.040000
v 0.212000 0.782000 -0.040000
v 0.212000 0.782000 0.040000
v 0.296000 0.782000 -0.040000
v 0.296000 0.782000 0.040000
v 0.296000 0.024000 -0.040000
v 0.296000 0.024000 0.040000
v 0.100000 0.024000 -0.040000
v 0.100000 0.024000 0.040000
v 0.100000 0.412000 -0.040000
v 0.100000 0.412000 0.040000
v 0.096000 0.412000 -0.040000
v 0.096000 0.412000 0.040000
v -0.216000 0.024000 -0.040000
v -0.216000 0.024000 0.040000
vn 0.0000 -0.0000 1.0000
vn 0.0000 0.0000 -1.0000
vn 0.7071 0.7071 0.0000
vn 0.7071 -0.7071 0.0000
vn -0.7071 -0.7071 0.0000
vn -0.9418 0.3360 0.0000
vn -0.4284 0.9036 0.0000
vn -0.7071 0.7071 0.0000
vn 0.4321 -0.9018 0.0000
vn 0.9018 0.4321 0.0000
usemtl white
s off
f 16//7 18//7 17//7
f 16//7 22//7 18//7
f 22//7 21//7 18//7
f 21//7 19//7 18//7
f 16//7 23//7 22//7
f 20//7 19//7 21//7
f 16//7 20//7 23//7
f 16//7 19//7 20//7
f 16//7 9//7 19//7
f 16//7 10//7 9//7
f 15//7 10//7 16//7
f 14//7 10//7 15//7
f 13//7 11//7 14//7
f 11//7 10//7 14//7
f 13//7 12//7 11//7
f 33//8 31//8 32//8
f 37//8 31//8 33//8
f 36//8 37//8 33//8
f 34//8 36//8 33//8
f 38//8 31//8 37//8
f 34//8 35//8 36//8
f 35//8 31//8 38//8
f 34//8 31//8 35//8
f 24//8 31//8 34//8
f 25//8 31//8 24//8
f 25//8 30//8 31//8
f 25//8 29//8 30//8
f 26//8 28//8 29//8
f 25//7 26//7 29//7
f 27//8 28//8 26//8
s 1
f 40//9 42//10 41//10 39//9
f 42//10 44//10 43//10 41//10
f 44//10 46//10 45//10 43//10
f 46//10 48//11 47//11 45//10
f 48//11 50//11 49//11 47//11
f 50//11 52//11 51//11 49//11
f 52//11 54//12 53//12 51//11
f 54//12 56//13 55//13 53//12
f 56//13 58//9 57//9 55//13
f 58//9 60//9 59//9 57//9
f 60//9 40//9 39//9 59//9
f 62//14 64//11 63//11 61//14
f 64//11 66//15 65//15 63//11
f 66//15 68//16 67//16 65//15
f 68//16 62//14 61//14 67//16
